<svg xmlns="http://www.w3.org/2000/svg" viewBox="0 0 610 125"><defs><style>.cls-1{fill:#fff;}</style></defs><title>index-button</title><g id="Layer_2" data-name="Layer 2"><g id="Layer_1-2" data-name="Layer 1"><rect class="cls-1" x="0.5" y="0.5" width="609" height="124"/><path d="M609,1V124H1V1H609m1-1H0V125H610V0Z"/><path d="M41.73,53.54h3.1l.36,5.17h.09A11.55,11.55,0,0,1,55,53a9.14,9.14,0,0,1,4.32.9l-.85,3.19a11.07,11.07,0,0,0-4-.72c-3.28,0-6.39,1.66-9,6.25V75.39H41.73Z"/><path d="M65.25,64.42A11,11,0,0,1,76.4,53c6.3,0,10,4.09,10,10.25a15.29,15.29,0,0,1-.18,2.25H67.72V62.62H84l-.94,1c0-5.18-2.57-7.74-6.57-7.74s-7.55,3.06-7.55,8.5c0,5.67,3.68,8.54,8.54,8.54a12,12,0,0,0,6.66-2.06l1.34,2.42A14.93,14.93,0,0,1,77,75.93C70.46,75.93,65.25,71.7,65.25,64.42Z"/><path d="M93.8,53.76l6.34-.22h12.73v3H93.8Zm6.25-2.07c0-5.3,2.79-8.86,8.82-8.86a16.31,16.31,0,0,1,6.29,1.26l-.85,2.79a11.91,11.91,0,0,0-5.08-1c-3.92,0-5.49,2.2-5.49,5.71V75.39h-3.69Z"/><path d="M119.21,64.42A11,11,0,0,1,130.36,53c6.29,0,10,4.09,10,10.25a15.29,15.29,0,0,1-.18,2.25H121.68V62.62H138l-1,1c0-5.18-2.56-7.74-6.56-7.74s-7.56,3.06-7.56,8.5c0,5.67,3.69,8.54,8.55,8.54a12,12,0,0,0,6.65-2.06l1.35,2.42A15,15,0,0,1,131,75.93C124.42,75.93,119.21,71.7,119.21,64.42Z"/><path d="M149.65,53.54h3.1l.36,5.17h.09A11.52,11.52,0,0,1,163,53a9.07,9.07,0,0,1,4.31.9l-.85,3.19a11.07,11.07,0,0,0-4-.72c-3.28,0-6.38,1.66-9,6.25V75.39h-3.73Z"/><path d="M173.16,64.42A11,11,0,0,1,184.32,53c6.29,0,10,4.09,10,10.25a15.29,15.29,0,0,1-.18,2.25H175.64V62.62h16.28l-.95,1c0-5.18-2.56-7.74-6.56-7.74s-7.56,3.06-7.56,8.5c0,5.67,3.69,8.54,8.55,8.54a12,12,0,0,0,6.65-2.06l1.35,2.42A15,15,0,0,1,185,75.93C178.38,75.93,173.16,71.7,173.16,64.42Z"/><path d="M201.27,53.54h3l.32,3.68h.18c2.29-2.38,4.81-4.22,8.23-4.22,5.17,0,7.55,3.06,7.55,8.81V75.39h-3.73V62.31c0-4.14-1.44-6.07-5-6.07-2.61,0-4.36,1.3-6.88,3.91V75.39h-3.73Z"/><path d="M227.66,64.51c0-7.33,5.58-11.51,12.19-11.51a11.13,11.13,0,0,1,8,3.19L246,58.57a9,9,0,0,0-6-2.47c-5,0-8.5,3.37-8.5,8.41s3.42,8.32,8.41,8.32a10.45,10.45,0,0,0,6.75-2.74l1.66,2.42a13,13,0,0,1-8.68,3.42C232.79,75.93,227.66,71.75,227.66,64.51Z"/><path d="M265.21,56.55H255.09v-3h13.85V75.39h-3.73Zm-1.49-10.48a3,3,0,1,1,3,2.88A2.8,2.8,0,0,1,263.72,46.07Z"/><path d="M281.62,69.73c0-4.91,4.59-7.29,15.87-8.19-.13-3-1.57-5.48-5.8-5.48a15.19,15.19,0,0,0-7.64,2.6l-1.49-2.51A19.16,19.16,0,0,1,292.32,53c6,0,8.9,3.55,8.9,9v13.4h-3.1l-.31-3h-.14c-2.38,1.89-5.53,3.51-8.59,3.51C285,75.93,281.62,73.64,281.62,69.73Zm15.87,0V64c-9.35.72-12.18,2.57-12.18,5.45,0,2.47,2.24,3.46,4.76,3.46S295,71.75,297.49,69.68Z"/><path d="M308.82,59.16h19.34V62H308.82Z"/><path d="M335.22,79.39c0-1.75,1.26-3.5,3.59-4.85v-.18a4,4,0,0,1-2.24-3.6,5.31,5.31,0,0,1,2.6-4.09v-.18a7,7,0,0,1-2.69-5.67c0-4.76,3.95-7.82,8.58-7.82a8.87,8.87,0,0,1,3.24.54h9v3h-5.66A6.63,6.63,0,0,1,353.52,61c0,4.67-3.73,7.51-8.46,7.51a9.4,9.4,0,0,1-3.68-.81,3,3,0,0,0-1.71,2.52c0,1.7,1.66,2.51,4.54,2.51h4.9c5.62,0,8.32,1.44,8.32,5.13,0,4.09-4.72,7.64-12.14,7.64C338.9,85.46,335.22,83.26,335.22,79.39Zm18.57-1c0-2.06-1.67-2.65-5-2.65h-4.28a12.32,12.32,0,0,1-3.32-.36c-2.07,1.13-2.79,2.38-2.79,3.64,0,2.3,2.47,3.74,7.15,3.74C350.64,82.77,353.79,80.65,353.79,78.4ZM350.1,60.82a5,5,0,1,0-5,5.17A4.93,4.93,0,0,0,350.1,60.82Z"/><path d="M362,64.42A11,11,0,0,1,373.17,53c6.29,0,10,4.09,10,10.25A15.29,15.29,0,0,1,383,65.5H364.49V62.62h16.28l-.95,1c0-5.18-2.56-7.74-6.56-7.74s-7.56,3.06-7.56,8.5c0,5.67,3.69,8.54,8.55,8.54a12,12,0,0,0,6.65-2.06l1.35,2.42a15,15,0,0,1-8.45,2.61C367.23,75.93,362,71.7,362,64.42Z"/><path d="M390.12,53.54h3.06l.31,3.68h.18C396,54.84,398.48,53,401.9,53c5.17,0,7.55,3.06,7.55,8.81V75.39h-3.73V62.31c0-4.14-1.44-6.07-5-6.07-2.61,0-4.36,1.3-6.88,3.91V75.39h-3.73Z"/><path d="M416,64.42A11,11,0,0,1,427.12,53c6.3,0,10,4.09,10,10.25a15.29,15.29,0,0,1-.18,2.25H418.45V62.62h16.27l-.94,1c0-5.18-2.56-7.74-6.57-7.74s-7.55,3.06-7.55,8.5c0,5.67,3.69,8.54,8.54,8.54a12,12,0,0,0,6.66-2.06l1.35,2.42a15,15,0,0,1-8.46,2.61C421.19,75.93,416,71.7,416,64.42Z"/><path d="M446.42,53.54h3.1l.36,5.17H450A11.52,11.52,0,0,1,459.73,53a9.12,9.12,0,0,1,4.31.9l-.85,3.19a11.07,11.07,0,0,0-4.05-.72c-3.28,0-6.38,1.66-9,6.25V75.39h-3.73Z"/><path d="M470.47,69.73c0-4.91,4.59-7.29,15.87-8.19-.13-3-1.57-5.48-5.8-5.48a15.19,15.19,0,0,0-7.64,2.6l-1.48-2.51A19.09,19.09,0,0,1,481.17,53c6,0,8.91,3.55,8.91,9v13.4H487l-.31-3h-.14c-2.38,1.89-5.53,3.51-8.58,3.51C473.84,75.93,470.47,73.64,470.47,69.73Zm15.87,0V64c-9.35.72-12.18,2.57-12.18,5.45,0,2.47,2.25,3.46,4.77,3.46S483.83,71.75,486.34,69.68Zm-8-21.67,6.39-7.56L487.38,43l-7.06,6.88Z"/><path d="M503.11,66.89V56.55h-6.2V53.76l6.34-.22.49-7h3.11v7h10.7v3h-10.7V66.94c0,3.91,1.3,5.93,5.53,5.93a14.32,14.32,0,0,0,5.22-1l.8,2.75a19,19,0,0,1-6.83,1.3C505.18,75.93,503.11,72.29,503.11,66.89Z"/><path d="M523.53,64.51c0-7.33,5-11.51,10.79-11.51s10.79,4.18,10.79,11.51-5,11.42-10.79,11.42S523.53,71.75,523.53,64.51Zm17.76,0c0-5-2.79-8.41-7-8.41s-7,3.37-7,8.41,2.79,8.32,7,8.32S541.29,69.5,541.29,64.51Z"/><path d="M554.33,53.54h3.1l.36,5.17h.09c2.3-3.55,5.71-5.71,9.76-5.71a9.14,9.14,0,0,1,4.32.9l-.86,3.19a11,11,0,0,0-4-.72c-3.29,0-6.39,1.66-9,6.25V75.39h-3.73Z"/></g></g></svg>